<svg width="27" height="26" viewBox="0 0 27 26" fill="none" xmlns="http://www.w3.org/2000/svg">
<path d="M20.8952 25.5637C20.5777 25.5637 20.2617 25.4662 19.9898 25.2721L13.5963 20.687L7.20279 25.2721C6.9379 25.4627 6.61957 25.5647 6.29324 25.5636C5.96692 25.5624 5.6493 25.4582 5.38573 25.2658C5.12192 25.0745 4.92515 24.8049 4.82341 24.4953C4.72168 24.1858 4.72016 23.852 4.81908 23.5415L7.20358 15.8457L0.867445 11.3809C0.604853 11.1871 0.409836 10.9156 0.309981 10.6049C0.210125 10.2942 0.210485 9.95997 0.31101 9.64947C0.412327 9.33973 0.608424 9.06967 0.871586 8.87744C1.13475 8.68522 1.45167 8.58056 1.77755 8.57826L9.62502 8.56647L12.1235 1.06166C12.2266 0.752496 12.4243 0.483606 12.6887 0.293068C12.9531 0.102529 13.2708 0 13.5967 0C13.9226 0 14.2402 0.102529 14.5046 0.293068C14.769 0.483606 14.9668 0.752496 15.0699 1.06166L17.5259 8.56647L25.4135 8.57826C25.7397 8.5801 26.0571 8.6847 26.3206 8.87722C26.584 9.06973 26.7801 9.34035 26.8809 9.65065C26.9818 9.96095 26.9823 10.2951 26.8824 10.6057C26.7825 10.9163 26.5872 11.1876 26.3244 11.3809L19.9882 15.8457L22.3727 23.5415C22.4719 23.8519 22.4705 24.1857 22.3689 24.4953C22.2673 24.8049 22.0706 25.0745 21.8069 25.2658C21.5425 25.4597 21.2231 25.5641 20.8952 25.5637Z" fill="#CEC9C1"/>
</svg>
