<svg width="27" height="26" viewBox="0 0 27 26" fill="none" xmlns="http://www.w3.org/2000/svg">
<path d="M20.8503 25.5637C20.5328 25.5637 20.2168 25.4662 19.9449 25.2721L13.5514 20.687L7.15787 25.2721C6.89298 25.4627 6.57464 25.5647 6.24832 25.5636C5.922 25.5624 5.60438 25.4582 5.34081 25.2658C5.077 25.0745 4.88022 24.8049 4.77849 24.4953C4.67675 24.1858 4.67524 23.852 4.77416 23.5415L7.15866 15.8457L0.822523 11.3809C0.559931 11.1871 0.364914 10.9156 0.265059 10.6049C0.165203 10.2942 0.165563 9.95997 0.266088 9.64947C0.367405 9.33973 0.563503 9.06967 0.826665 8.87744C1.08983 8.68522 1.40674 8.58056 1.73263 8.57826L9.5801 8.56647L12.0786 1.06166C12.1817 0.752497 12.3794 0.483606 12.6438 0.293068C12.9082 0.102529 13.2259 0 13.5518 0C13.8777 0 14.1953 0.102529 14.4597 0.293068C14.7241 0.483606 14.9219 0.752497 15.025 1.06166L17.481 8.56647L25.3686 8.57826C25.6948 8.5801 26.0122 8.6847 26.2757 8.87722C26.5391 9.06973 26.7351 9.34035 26.836 9.65065C26.9368 9.96095 26.9374 10.2951 26.8374 10.6057C26.7375 10.9163 26.5423 11.1876 26.2794 11.3809L19.9433 15.8457L22.3278 23.5415C22.4269 23.8519 22.4256 24.1857 22.324 24.4953C22.2224 24.8049 22.0257 25.0745 21.7619 25.2658C21.4976 25.4597 21.1781 25.5641 20.8503 25.5637Z" fill="#FFAC33"/>
</svg>
